<svg xmlns="http://www.w3.org/2000/svg" width="135" height="32" viewBox="0 0 135 32">
  <defs>
    <style>
      .bg { fill: #090D16; stroke: #38BDF8; stroke-width: 1.5; rx: 6px; }
      .text { fill: #F4F6F8; font-family: -apple-system, BlinkMacSystemFont, "Segoe UI", Roboto, sans-serif; font-size: 13px; font-weight: 500; letter-spacing: 0.5px; }
      .icon { fill: #38BDF8; }
    </style>
  </defs>
  <rect width="133" height="30" x="1" y="1" class="bg"/>
  <!-- Instagram Icon -->
  <path class="icon" d="M12 2.182c3.197 0 3.578.012 4.84.07 1.166.053 1.8.247 2.22.41.558.217.957.477 1.377.896.42.42.68.818.896 1.376.164.422.358 1.056.41 2.222.058 1.26.07 1.64.07 4.838 0 3.197-.012 3.577-.07 4.84-.053 1.165-.247 1.8-.41 2.22-.217.558-.477.956-.896 1.376-.42.42-.818.68-1.376.896-.422.164-1.056.358-2.222.41-1.26.057-1.64.07-4.838.07-3.197 0-3.577-.013-4.84-.07-1.165-.053-1.8-.247-2.22-.41-.558-.217-.956-.477-1.376-.896-.42-.42-.68-.819-.896-1.376-.164-.422-.358-1.056-.41-2.222-.057-1.26-.07-1.64-.07-4.838 0-3.196.013-3.577.07-4.84.053-1.165.247-1.8.41-2.22.217-.558.477-.956.896-1.376.42-.42.819-.68 1.376-.896.422-.164 1.056-.358 2.222-.41 1.26-.057 1.64-.07 4.838-.07M12 0C8.74 0 8.332.014 7.052.072 5.775.13 4.903.333 4.14.63c-.789.306-1.459.717-2.126 1.384S.935 3.35.63 4.14C.333 4.903.13 5.775.072 7.052.014 8.332 0 8.74 0 12s.014 3.668.072 4.948c.058 1.277.26 2.148.558 2.911.306.789.717 1.459 1.384 2.126s1.336 1.079 2.126 1.384c.763.297 1.635.5 2.911.558C8.332 23.986 8.74 24 12 24s3.668-.014 4.948-.072c1.277-.058 2.148-.26 2.911-.558.789-.306 1.459-.717 2.126-1.384s1.079-1.336 1.384-2.126c.297-.763.5-1.635.558-2.911.058-1.28.072-1.688.072-4.948s-.014-3.668-.072-4.948c-.058-1.277-.26-2.148-.558-2.911-.306-.789-.717-1.459-1.384-2.126S20.65.935 19.86.63c-.763-.297-1.635-.5-2.911-.558C15.668.014 15.26 0 12 0zm0 5.838a6.162 6.162 0 100 12.324 6.162 6.162 0 000-12.324zM12 16a4 4 0 110-8 4 4 0 010 8zm6.406-11.845a1.44 1.44 0 100 2.881 1.44 1.44 0 000-2.881z" transform="translate(8, 4) scale(0.9)"/>
  <text x="36" y="20" class="text">Instagram</text>
</svg>
