<svg xmlns="http://www.w3.org/2000/svg" width="185" height="100" viewBox="0 0 185 100" fill="none">
  <!-- Background with Electric Blue Border -->
  <rect width="185" height="100" rx="10" fill="#090D16" stroke="#2A64F6" stroke-width="1.5" />

  <!-- LinkedIn Icon -->
  <g transform="translate(20, 20)">
    <path d="M19 0h-14c-2.761 0-5 2.239-5 5v14c0 2.761 2.239 5 5 5h14c2.762 0 5-2.239 5-5v-14c0-2.761-2.238-5-5-5zm-11 19h-3v-11h3v11zm-1.5-12.268c-.966 0-1.75-.79-1.75-1.764s.784-1.764 1.75-1.764 1.75.79 1.75 1.764-.783 1.764-1.75 1.764zm13.5 12.268h-3v-5.604c0-3.368-4-3.113-4 0v5.604h-3v-11h3v1.765c1.396-2.586 7-2.777 7 2.476v6.759z" fill="#2A64F6"/>
  </g>

  <!-- Title -->
  <text x="20" y="65" fill="#F4F6F8" font-family="-apple-system, BlinkMacSystemFont, 'Segoe UI', Roboto, sans-serif" font-size="12" font-weight="700" letter-spacing="0.5px">
    LINKEDIN
  </text>

  <!-- Handle -->
  <text x="20" y="82" fill="#8E9BB0" font-family="-apple-system, BlinkMacSystemFont, 'Segoe UI', Roboto, sans-serif" font-size="9" font-weight="400">
    muthusam-thevar
  </text>
</svg>
