<svg xmlns="http://www.w3.org/2000/svg" width="185" height="100" viewBox="0 0 185 100" fill="none">
  <defs>
    <style>
      @keyframes slideUpFade {
        from { opacity: 0; transform: translateY(12px); }
        to { opacity: 1; transform: translateY(0); }
      }
      .card-container {
        opacity: 0;
        animation: slideUpFade 0.6s cubic-bezier(0.16, 1, 0.3, 1) forwards;
        animation-delay: 2.0s;
        transition: transform 0.3s cubic-bezier(0.16, 1, 0.3, 1), filter 0.3s;
      }
      .card-container:hover {
        transform: translateY(-3px);
        filter: drop-shadow(0 4px 8px rgba(212, 196, 174, 0.12));
      }
      .card-container:hover .card {
        stroke: #D4C4AE;
      }
      .card {
        fill: #19201C;
        stroke: #222A26;
        stroke-width: 1.5;
        rx: 10px;
        transition: stroke 0.3s;
      }
    </style>
  </defs>

  <g class="card-container">
    <!-- Deep Forest Charcoal Background Card -->
    <rect width="185" height="100" class="card" />

    <!-- LinkedIn Icon (Sage Green) -->
    <g transform="translate(20, 20)">
      <path d="M19 0h-14c-2.761 0-5 2.239-5 5v14c0 2.761 2.239 5 5 5h14c2.762 0 5-2.239 5-5v-14c0-2.761-2.238-5-5-5zm-11 19h-3v-11h3v11zm-1.5-12.268c-.966 0-1.75-.79-1.75-1.764s.784-1.764 1.75-1.764 1.75.79 1.75 1.764-.783 1.764-1.75 1.764zm13.5 12.268h-3v-5.604c0-3.368-4-3.113-4 0v5.604h-3v-11h3v1.765c1.396-2.586 7-2.777 7 2.476v6.759z" fill="#C8D3C5"/>
    </g>

    <!-- Title (Chalk White) -->
    <text x="20" y="65" fill="#F4F3EF" font-family="-apple-system, BlinkMacSystemFont, 'Segoe UI', Roboto, sans-serif" font-size="12" font-weight="700" letter-spacing="0.5px">
      LINKEDIN
    </text>

    <!-- Handle (Muted Sage Green) -->
    <text x="20" y="82" fill="#A0ADA4" font-family="-apple-system, BlinkMacSystemFont, 'Segoe UI', Roboto, sans-serif" font-size="9" font-weight="400">
      muthusam-thevar
    </text>
  </g>
</svg>
